<mxfile host="app.diagrams.net" modified="2022-02-15T06:22:09.111Z" agent="5.0 (Windows NT 10.0; Win64; x64) AppleWebKit/537.36 (KHTML, like Gecko) Chrome/98.0.4758.82 Safari/537.36" etag="dKX9lKNCa3wk9jii5ssW" version="16.5.5" type="github">
  <diagram id="R2lEEEUBdFMjLlhIrx00" name="Assignment">
    <mxGraphModel dx="1235" dy="797" grid="0" gridSize="10" guides="1" tooltips="1" connect="1" arrows="1" fold="1" page="0" pageScale="1" pageWidth="850" pageHeight="1100" background="#FFFFFF" math="0" shadow="1" extFonts="Permanent Marker^https://fonts.googleapis.com/css?family=Permanent+Marker">
      <root>
        <mxCell id="0" />
        <mxCell id="1" parent="0" />
        <mxCell id="C-vyLk0tnHw3VtMMgP7b-1" value="" style="edgeStyle=entityRelationEdgeStyle;endArrow=ERzeroToMany;startArrow=ERone;endFill=1;startFill=0;fontFamily=Times New Roman;" parent="1" source="C-vyLk0tnHw3VtMMgP7b-24" target="C-vyLk0tnHw3VtMMgP7b-6" edge="1">
          <mxGeometry width="100" height="100" relative="1" as="geometry">
            <mxPoint x="340" y="720" as="sourcePoint" />
            <mxPoint x="440" y="620" as="targetPoint" />
          </mxGeometry>
        </mxCell>
        <mxCell id="C-vyLk0tnHw3VtMMgP7b-12" value="" style="edgeStyle=entityRelationEdgeStyle;endArrow=ERzeroToMany;startArrow=ERone;endFill=1;startFill=0;fontFamily=Times New Roman;" parent="1" source="C-vyLk0tnHw3VtMMgP7b-3" target="C-vyLk0tnHw3VtMMgP7b-17" edge="1">
          <mxGeometry width="100" height="100" relative="1" as="geometry">
            <mxPoint x="400" y="180" as="sourcePoint" />
            <mxPoint x="460" y="205" as="targetPoint" />
          </mxGeometry>
        </mxCell>
        <mxCell id="C-vyLk0tnHw3VtMMgP7b-2" value="Orders" style="shape=table;startSize=30;container=1;collapsible=1;childLayout=tableLayout;fixedRows=1;rowLines=0;fontStyle=1;align=center;resizeLast=1;fontFamily=Times New Roman;" parent="1" vertex="1">
          <mxGeometry x="450" y="120" width="250" height="130" as="geometry" />
        </mxCell>
        <mxCell id="C-vyLk0tnHw3VtMMgP7b-3" value="" style="shape=partialRectangle;collapsible=0;dropTarget=0;pointerEvents=0;fillColor=none;points=[[0,0.5],[1,0.5]];portConstraint=eastwest;top=0;left=0;right=0;bottom=1;fontFamily=Times New Roman;" parent="C-vyLk0tnHw3VtMMgP7b-2" vertex="1">
          <mxGeometry y="30" width="250" height="30" as="geometry" />
        </mxCell>
        <mxCell id="C-vyLk0tnHw3VtMMgP7b-4" value="PK" style="shape=partialRectangle;overflow=hidden;connectable=0;fillColor=none;top=0;left=0;bottom=0;right=0;fontStyle=1;fontFamily=Times New Roman;" parent="C-vyLk0tnHw3VtMMgP7b-3" vertex="1">
          <mxGeometry width="30" height="30" as="geometry">
            <mxRectangle width="30" height="30" as="alternateBounds" />
          </mxGeometry>
        </mxCell>
        <mxCell id="C-vyLk0tnHw3VtMMgP7b-5" value="order_id int NOT NULL " style="shape=partialRectangle;overflow=hidden;connectable=0;fillColor=none;top=0;left=0;bottom=0;right=0;align=left;spacingLeft=6;fontStyle=5;fontFamily=Times New Roman;" parent="C-vyLk0tnHw3VtMMgP7b-3" vertex="1">
          <mxGeometry x="30" width="220" height="30" as="geometry">
            <mxRectangle width="220" height="30" as="alternateBounds" />
          </mxGeometry>
        </mxCell>
        <mxCell id="C-vyLk0tnHw3VtMMgP7b-6" value="" style="shape=partialRectangle;collapsible=0;dropTarget=0;pointerEvents=0;fillColor=none;points=[[0,0.5],[1,0.5]];portConstraint=eastwest;top=0;left=0;right=0;bottom=0;fontFamily=Times New Roman;" parent="C-vyLk0tnHw3VtMMgP7b-2" vertex="1">
          <mxGeometry y="60" width="250" height="30" as="geometry" />
        </mxCell>
        <mxCell id="C-vyLk0tnHw3VtMMgP7b-7" value="FK1" style="shape=partialRectangle;overflow=hidden;connectable=0;fillColor=none;top=0;left=0;bottom=0;right=0;fontFamily=Times New Roman;" parent="C-vyLk0tnHw3VtMMgP7b-6" vertex="1">
          <mxGeometry width="30" height="30" as="geometry">
            <mxRectangle width="30" height="30" as="alternateBounds" />
          </mxGeometry>
        </mxCell>
        <mxCell id="C-vyLk0tnHw3VtMMgP7b-8" value="customer_id int NOT NULL" style="shape=partialRectangle;overflow=hidden;connectable=0;fillColor=none;top=0;left=0;bottom=0;right=0;align=left;spacingLeft=6;fontFamily=Times New Roman;" parent="C-vyLk0tnHw3VtMMgP7b-6" vertex="1">
          <mxGeometry x="30" width="220" height="30" as="geometry">
            <mxRectangle width="220" height="30" as="alternateBounds" />
          </mxGeometry>
        </mxCell>
        <mxCell id="C-vyLk0tnHw3VtMMgP7b-9" value="" style="shape=partialRectangle;collapsible=0;dropTarget=0;pointerEvents=0;fillColor=none;points=[[0,0.5],[1,0.5]];portConstraint=eastwest;top=0;left=0;right=0;bottom=0;fontFamily=Times New Roman;" parent="C-vyLk0tnHw3VtMMgP7b-2" vertex="1">
          <mxGeometry y="90" width="250" height="30" as="geometry" />
        </mxCell>
        <mxCell id="C-vyLk0tnHw3VtMMgP7b-10" value="" style="shape=partialRectangle;overflow=hidden;connectable=0;fillColor=none;top=0;left=0;bottom=0;right=0;fontFamily=Times New Roman;" parent="C-vyLk0tnHw3VtMMgP7b-9" vertex="1">
          <mxGeometry width="30" height="30" as="geometry">
            <mxRectangle width="30" height="30" as="alternateBounds" />
          </mxGeometry>
        </mxCell>
        <mxCell id="C-vyLk0tnHw3VtMMgP7b-11" value="order_date date NOT NULL" style="shape=partialRectangle;overflow=hidden;connectable=0;fillColor=none;top=0;left=0;bottom=0;right=0;align=left;spacingLeft=6;fontFamily=Times New Roman;" parent="C-vyLk0tnHw3VtMMgP7b-9" vertex="1">
          <mxGeometry x="30" width="220" height="30" as="geometry">
            <mxRectangle width="220" height="30" as="alternateBounds" />
          </mxGeometry>
        </mxCell>
        <mxCell id="C-vyLk0tnHw3VtMMgP7b-13" value="Shipments" style="shape=table;startSize=30;container=1;collapsible=1;childLayout=tableLayout;fixedRows=1;rowLines=0;fontStyle=1;align=center;resizeLast=1;fontFamily=Times New Roman;" parent="1" vertex="1">
          <mxGeometry x="450" y="280" width="250" height="130" as="geometry" />
        </mxCell>
        <mxCell id="C-vyLk0tnHw3VtMMgP7b-14" value="" style="shape=partialRectangle;collapsible=0;dropTarget=0;pointerEvents=0;fillColor=none;points=[[0,0.5],[1,0.5]];portConstraint=eastwest;top=0;left=0;right=0;bottom=1;fontFamily=Times New Roman;" parent="C-vyLk0tnHw3VtMMgP7b-13" vertex="1">
          <mxGeometry y="30" width="250" height="30" as="geometry" />
        </mxCell>
        <mxCell id="C-vyLk0tnHw3VtMMgP7b-15" value="PK" style="shape=partialRectangle;overflow=hidden;connectable=0;fillColor=none;top=0;left=0;bottom=0;right=0;fontStyle=1;fontFamily=Times New Roman;" parent="C-vyLk0tnHw3VtMMgP7b-14" vertex="1">
          <mxGeometry width="30" height="30" as="geometry">
            <mxRectangle width="30" height="30" as="alternateBounds" />
          </mxGeometry>
        </mxCell>
        <mxCell id="C-vyLk0tnHw3VtMMgP7b-16" value="shipment_id int NOT NULL " style="shape=partialRectangle;overflow=hidden;connectable=0;fillColor=none;top=0;left=0;bottom=0;right=0;align=left;spacingLeft=6;fontStyle=5;fontFamily=Times New Roman;" parent="C-vyLk0tnHw3VtMMgP7b-14" vertex="1">
          <mxGeometry x="30" width="220" height="30" as="geometry">
            <mxRectangle width="220" height="30" as="alternateBounds" />
          </mxGeometry>
        </mxCell>
        <mxCell id="C-vyLk0tnHw3VtMMgP7b-17" value="" style="shape=partialRectangle;collapsible=0;dropTarget=0;pointerEvents=0;fillColor=none;points=[[0,0.5],[1,0.5]];portConstraint=eastwest;top=0;left=0;right=0;bottom=0;fontFamily=Times New Roman;" parent="C-vyLk0tnHw3VtMMgP7b-13" vertex="1">
          <mxGeometry y="60" width="250" height="30" as="geometry" />
        </mxCell>
        <mxCell id="C-vyLk0tnHw3VtMMgP7b-18" value="FK1" style="shape=partialRectangle;overflow=hidden;connectable=0;fillColor=none;top=0;left=0;bottom=0;right=0;fontFamily=Times New Roman;" parent="C-vyLk0tnHw3VtMMgP7b-17" vertex="1">
          <mxGeometry width="30" height="30" as="geometry">
            <mxRectangle width="30" height="30" as="alternateBounds" />
          </mxGeometry>
        </mxCell>
        <mxCell id="C-vyLk0tnHw3VtMMgP7b-19" value="order_id int NOT NULL" style="shape=partialRectangle;overflow=hidden;connectable=0;fillColor=none;top=0;left=0;bottom=0;right=0;align=left;spacingLeft=6;fontFamily=Times New Roman;" parent="C-vyLk0tnHw3VtMMgP7b-17" vertex="1">
          <mxGeometry x="30" width="220" height="30" as="geometry">
            <mxRectangle width="220" height="30" as="alternateBounds" />
          </mxGeometry>
        </mxCell>
        <mxCell id="C-vyLk0tnHw3VtMMgP7b-20" value="" style="shape=partialRectangle;collapsible=0;dropTarget=0;pointerEvents=0;fillColor=none;points=[[0,0.5],[1,0.5]];portConstraint=eastwest;top=0;left=0;right=0;bottom=0;fontFamily=Times New Roman;" parent="C-vyLk0tnHw3VtMMgP7b-13" vertex="1">
          <mxGeometry y="90" width="250" height="30" as="geometry" />
        </mxCell>
        <mxCell id="C-vyLk0tnHw3VtMMgP7b-21" value="" style="shape=partialRectangle;overflow=hidden;connectable=0;fillColor=none;top=0;left=0;bottom=0;right=0;fontFamily=Times New Roman;" parent="C-vyLk0tnHw3VtMMgP7b-20" vertex="1">
          <mxGeometry width="30" height="30" as="geometry">
            <mxRectangle width="30" height="30" as="alternateBounds" />
          </mxGeometry>
        </mxCell>
        <mxCell id="C-vyLk0tnHw3VtMMgP7b-22" value="shipment_date date NOT NULL" style="shape=partialRectangle;overflow=hidden;connectable=0;fillColor=none;top=0;left=0;bottom=0;right=0;align=left;spacingLeft=6;fontFamily=Times New Roman;" parent="C-vyLk0tnHw3VtMMgP7b-20" vertex="1">
          <mxGeometry x="30" width="220" height="30" as="geometry">
            <mxRectangle width="220" height="30" as="alternateBounds" />
          </mxGeometry>
        </mxCell>
        <mxCell id="C-vyLk0tnHw3VtMMgP7b-23" value="Customers" style="shape=table;startSize=30;container=1;collapsible=1;childLayout=tableLayout;fixedRows=1;rowLines=0;fontStyle=1;align=center;resizeLast=1;fontFamily=Times New Roman;" parent="1" vertex="1">
          <mxGeometry x="120" y="120" width="250" height="100" as="geometry" />
        </mxCell>
        <mxCell id="C-vyLk0tnHw3VtMMgP7b-24" value="" style="shape=partialRectangle;collapsible=0;dropTarget=0;pointerEvents=0;fillColor=none;points=[[0,0.5],[1,0.5]];portConstraint=eastwest;top=0;left=0;right=0;bottom=1;fontFamily=Times New Roman;" parent="C-vyLk0tnHw3VtMMgP7b-23" vertex="1">
          <mxGeometry y="30" width="250" height="30" as="geometry" />
        </mxCell>
        <mxCell id="C-vyLk0tnHw3VtMMgP7b-25" value="PK" style="shape=partialRectangle;overflow=hidden;connectable=0;fillColor=none;top=0;left=0;bottom=0;right=0;fontStyle=1;fontFamily=Times New Roman;" parent="C-vyLk0tnHw3VtMMgP7b-24" vertex="1">
          <mxGeometry width="30" height="30" as="geometry">
            <mxRectangle width="30" height="30" as="alternateBounds" />
          </mxGeometry>
        </mxCell>
        <mxCell id="C-vyLk0tnHw3VtMMgP7b-26" value="customer_id int NOT NULL " style="shape=partialRectangle;overflow=hidden;connectable=0;fillColor=none;top=0;left=0;bottom=0;right=0;align=left;spacingLeft=6;fontStyle=5;fontFamily=Times New Roman;" parent="C-vyLk0tnHw3VtMMgP7b-24" vertex="1">
          <mxGeometry x="30" width="220" height="30" as="geometry">
            <mxRectangle width="220" height="30" as="alternateBounds" />
          </mxGeometry>
        </mxCell>
        <mxCell id="C-vyLk0tnHw3VtMMgP7b-27" value="" style="shape=partialRectangle;collapsible=0;dropTarget=0;pointerEvents=0;fillColor=none;points=[[0,0.5],[1,0.5]];portConstraint=eastwest;top=0;left=0;right=0;bottom=0;fontFamily=Times New Roman;" parent="C-vyLk0tnHw3VtMMgP7b-23" vertex="1">
          <mxGeometry y="60" width="250" height="30" as="geometry" />
        </mxCell>
        <mxCell id="C-vyLk0tnHw3VtMMgP7b-28" value="" style="shape=partialRectangle;overflow=hidden;connectable=0;fillColor=none;top=0;left=0;bottom=0;right=0;fontFamily=Times New Roman;" parent="C-vyLk0tnHw3VtMMgP7b-27" vertex="1">
          <mxGeometry width="30" height="30" as="geometry">
            <mxRectangle width="30" height="30" as="alternateBounds" />
          </mxGeometry>
        </mxCell>
        <mxCell id="C-vyLk0tnHw3VtMMgP7b-29" value="customer_name char(50) NOT NULL" style="shape=partialRectangle;overflow=hidden;connectable=0;fillColor=none;top=0;left=0;bottom=0;right=0;align=left;spacingLeft=6;fontFamily=Times New Roman;" parent="C-vyLk0tnHw3VtMMgP7b-27" vertex="1">
          <mxGeometry x="30" width="220" height="30" as="geometry">
            <mxRectangle width="220" height="30" as="alternateBounds" />
          </mxGeometry>
        </mxCell>
        <mxCell id="3wrw05tANonlnPxJcy26-1" value="&lt;b&gt;&lt;u&gt;EMPLOYEE ID&lt;/u&gt;&lt;/b&gt;" style="rounded=0;whiteSpace=wrap;html=1;fontFamily=Times New Roman;" vertex="1" parent="1">
          <mxGeometry x="-189" y="732" width="120" height="60" as="geometry" />
        </mxCell>
        <mxCell id="3wrw05tANonlnPxJcy26-6" value="EMPLOYEE NAME" style="rounded=0;whiteSpace=wrap;html=1;fontFamily=Times New Roman;" vertex="1" parent="1">
          <mxGeometry x="-69" y="732" width="120" height="60" as="geometry" />
        </mxCell>
        <mxCell id="3wrw05tANonlnPxJcy26-7" value="PAYROLL ADDRESS" style="rounded=0;whiteSpace=wrap;html=1;fontFamily=Times New Roman;" vertex="1" parent="1">
          <mxGeometry x="51" y="732" width="120" height="60" as="geometry" />
        </mxCell>
        <mxCell id="3wrw05tANonlnPxJcy26-8" value="DATE EMPLOYED" style="rounded=0;whiteSpace=wrap;html=1;fontFamily=Times New Roman;" vertex="1" parent="1">
          <mxGeometry x="171" y="732" width="120" height="60" as="geometry" />
        </mxCell>
        <mxCell id="3wrw05tANonlnPxJcy26-9" value="SKILL" style="rounded=0;whiteSpace=wrap;html=1;fontFamily=Times New Roman;" vertex="1" parent="1">
          <mxGeometry x="291" y="732" width="120" height="60" as="geometry" />
        </mxCell>
        <mxCell id="3wrw05tANonlnPxJcy26-10" value="YEARS EMPLOYED" style="rounded=0;whiteSpace=wrap;html=1;fontFamily=Times New Roman;" vertex="1" parent="1">
          <mxGeometry x="411" y="732" width="120" height="60" as="geometry" />
        </mxCell>
        <mxCell id="3wrw05tANonlnPxJcy26-12" value="" style="endArrow=classic;html=1;rounded=0;exitX=0.5;exitY=1;exitDx=0;exitDy=0;entryX=0.5;entryY=1;entryDx=0;entryDy=0;endFill=1;fontFamily=Times New Roman;" edge="1" parent="1" source="3wrw05tANonlnPxJcy26-1" target="3wrw05tANonlnPxJcy26-9">
          <mxGeometry width="50" height="50" relative="1" as="geometry">
            <mxPoint x="-181" y="921" as="sourcePoint" />
            <mxPoint x="369" y="921" as="targetPoint" />
            <Array as="points">
              <mxPoint x="-129" y="921" />
              <mxPoint x="351" y="921" />
            </Array>
          </mxGeometry>
        </mxCell>
        <mxCell id="3wrw05tANonlnPxJcy26-13" value="" style="endArrow=classic;html=1;rounded=0;entryX=0.5;entryY=1;entryDx=0;entryDy=0;strokeColor=default;snapToPoint=1;flowAnimation=0;noJump=0;ignoreEdge=0;startFill=1;fixDash=0;metaEdit=0;backgroundOutline=0;orthogonal=0;enumerate=0;endFill=1;fontFamily=Times New Roman;" edge="1" parent="1" target="3wrw05tANonlnPxJcy26-6">
          <mxGeometry width="50" height="50" relative="1" as="geometry">
            <mxPoint x="-9" y="923" as="sourcePoint" />
            <mxPoint x="38" y="855" as="targetPoint" />
          </mxGeometry>
        </mxCell>
        <mxCell id="3wrw05tANonlnPxJcy26-15" value="" style="endArrow=classic;html=1;rounded=0;entryX=0.5;entryY=1;entryDx=0;entryDy=0;strokeColor=default;snapToPoint=1;flowAnimation=0;noJump=0;ignoreEdge=0;startFill=1;fixDash=0;metaEdit=0;backgroundOutline=0;orthogonal=0;enumerate=0;endFill=1;fontFamily=Times New Roman;" edge="1" parent="1">
          <mxGeometry width="50" height="50" relative="1" as="geometry">
            <mxPoint x="112.99999999999989" y="923" as="sourcePoint" />
            <mxPoint x="112.99999999999989" y="792" as="targetPoint" />
          </mxGeometry>
        </mxCell>
        <mxCell id="3wrw05tANonlnPxJcy26-16" value="" style="endArrow=classic;html=1;rounded=0;entryX=0.5;entryY=1;entryDx=0;entryDy=0;strokeColor=default;snapToPoint=1;flowAnimation=0;noJump=0;ignoreEdge=0;startFill=1;fixDash=0;metaEdit=0;backgroundOutline=0;orthogonal=0;enumerate=0;endFill=1;fontFamily=Times New Roman;" edge="1" parent="1">
          <mxGeometry width="50" height="50" relative="1" as="geometry">
            <mxPoint x="230.65999999999988" y="923" as="sourcePoint" />
            <mxPoint x="230.65999999999988" y="792" as="targetPoint" />
          </mxGeometry>
        </mxCell>
        <mxCell id="3wrw05tANonlnPxJcy26-17" value="" style="endArrow=classic;html=1;rounded=0;strokeColor=default;exitX=0.5;exitY=0;exitDx=0;exitDy=0;entryX=0.5;entryY=0;entryDx=0;entryDy=0;endFill=1;fontFamily=Times New Roman;" edge="1" parent="1" source="3wrw05tANonlnPxJcy26-8" target="3wrw05tANonlnPxJcy26-10">
          <mxGeometry width="50" height="50" relative="1" as="geometry">
            <mxPoint x="190" y="674" as="sourcePoint" />
            <mxPoint x="568" y="605" as="targetPoint" />
            <Array as="points">
              <mxPoint x="231" y="649" />
              <mxPoint x="347" y="649" />
              <mxPoint x="471" y="649" />
            </Array>
          </mxGeometry>
        </mxCell>
        <mxCell id="3wrw05tANonlnPxJcy26-19" value="" style="rounded=0;whiteSpace=wrap;html=1;fontFamily=Times New Roman;" vertex="1" parent="1">
          <mxGeometry x="-195" y="1133" width="120" height="60" as="geometry" />
        </mxCell>
        <mxCell id="3wrw05tANonlnPxJcy26-20" value="" style="rounded=0;whiteSpace=wrap;html=1;fontFamily=Times New Roman;" vertex="1" parent="1">
          <mxGeometry x="-75" y="1133" width="120" height="60" as="geometry" />
        </mxCell>
        <mxCell id="3wrw05tANonlnPxJcy26-21" value="" style="rounded=0;whiteSpace=wrap;html=1;fontFamily=Times New Roman;" vertex="1" parent="1">
          <mxGeometry x="45" y="1133" width="120" height="60" as="geometry" />
        </mxCell>
        <mxCell id="3wrw05tANonlnPxJcy26-22" value="" style="rounded=0;whiteSpace=wrap;html=1;fontFamily=Times New Roman;" vertex="1" parent="1">
          <mxGeometry x="165" y="1133" width="120" height="60" as="geometry" />
        </mxCell>
        <mxCell id="3wrw05tANonlnPxJcy26-23" value="&lt;b&gt;&lt;u&gt;FLIGHT ID&lt;/u&gt;&lt;/b&gt;" style="rounded=0;whiteSpace=wrap;html=1;fontFamily=Times New Roman;" vertex="1" parent="1">
          <mxGeometry x="-152" y="1398" width="120" height="60" as="geometry" />
        </mxCell>
        <mxCell id="3wrw05tANonlnPxJcy26-24" value="FLIGHT NO" style="rounded=0;whiteSpace=wrap;html=1;fontFamily=Times New Roman;" vertex="1" parent="1">
          <mxGeometry x="-32" y="1398" width="120" height="60" as="geometry" />
        </mxCell>
        <mxCell id="3wrw05tANonlnPxJcy26-25" value="DATE" style="rounded=0;whiteSpace=wrap;html=1;fontFamily=Times New Roman;" vertex="1" parent="1">
          <mxGeometry x="88" y="1398" width="120" height="60" as="geometry" />
        </mxCell>
        <mxCell id="3wrw05tANonlnPxJcy26-26" value="NUMBER OF&amp;nbsp;&lt;br&gt;PASSENGERS" style="rounded=0;whiteSpace=wrap;html=1;fontFamily=Times New Roman;" vertex="1" parent="1">
          <mxGeometry x="208" y="1398" width="120" height="60" as="geometry" />
        </mxCell>
        <mxCell id="3wrw05tANonlnPxJcy26-27" value="" style="endArrow=classic;html=1;rounded=0;exitX=0.5;exitY=1;exitDx=0;exitDy=0;entryX=0.5;entryY=1;entryDx=0;entryDy=0;endFill=1;fontFamily=Times New Roman;" edge="1" parent="1" target="3wrw05tANonlnPxJcy26-26">
          <mxGeometry width="50" height="50" relative="1" as="geometry">
            <mxPoint x="-88" y="1458" as="sourcePoint" />
            <mxPoint x="392" y="1458" as="targetPoint" />
            <Array as="points">
              <mxPoint x="-88" y="1519" />
              <mxPoint x="87" y="1519" />
              <mxPoint x="268" y="1519" />
            </Array>
          </mxGeometry>
        </mxCell>
        <mxCell id="3wrw05tANonlnPxJcy26-28" value="" style="endArrow=classic;html=1;rounded=0;entryX=0.5;entryY=1;entryDx=0;entryDy=0;strokeColor=default;snapToPoint=1;flowAnimation=0;noJump=0;ignoreEdge=0;startFill=1;fixDash=0;metaEdit=0;backgroundOutline=0;orthogonal=0;enumerate=0;endFill=1;fontFamily=Times New Roman;" edge="1" parent="1">
          <mxGeometry width="50" height="50" relative="1" as="geometry">
            <mxPoint x="31" y="1523.0980392156862" as="sourcePoint" />
            <mxPoint x="31" y="1458" as="targetPoint" />
          </mxGeometry>
        </mxCell>
        <mxCell id="3wrw05tANonlnPxJcy26-29" value="" style="endArrow=classic;html=1;rounded=0;entryX=0.5;entryY=1;entryDx=0;entryDy=0;strokeColor=default;snapToPoint=1;flowAnimation=0;noJump=0;ignoreEdge=0;startFill=1;fixDash=0;metaEdit=0;backgroundOutline=0;orthogonal=0;enumerate=0;endFill=1;fontFamily=Times New Roman;" edge="1" parent="1">
          <mxGeometry width="50" height="50" relative="1" as="geometry">
            <mxPoint x="154" y="1519" as="sourcePoint" />
            <mxPoint x="154" y="1458" as="targetPoint" />
          </mxGeometry>
        </mxCell>
        <mxCell id="3wrw05tANonlnPxJcy26-31" value="&lt;b&gt;&lt;u&gt;EMPLOYEE ID&lt;/u&gt;&lt;/b&gt;" style="rounded=0;whiteSpace=wrap;html=1;fontFamily=Times New Roman;" vertex="1" parent="1">
          <mxGeometry x="-224" y="1769" width="120" height="60" as="geometry" />
        </mxCell>
        <mxCell id="3wrw05tANonlnPxJcy26-32" value="&lt;b&gt;&lt;u&gt;COURSE ID&lt;/u&gt;&lt;/b&gt;" style="rounded=0;whiteSpace=wrap;html=1;fontFamily=Times New Roman;" vertex="1" parent="1">
          <mxGeometry x="-104" y="1769" width="120" height="60" as="geometry" />
        </mxCell>
        <mxCell id="3wrw05tANonlnPxJcy26-33" value="EMPLOYEE NAME" style="rounded=0;whiteSpace=wrap;html=1;fontFamily=Times New Roman;" vertex="1" parent="1">
          <mxGeometry x="16" y="1769" width="120" height="60" as="geometry" />
        </mxCell>
        <mxCell id="3wrw05tANonlnPxJcy26-34" value="BIRTH DATE" style="rounded=0;whiteSpace=wrap;html=1;fontFamily=Times New Roman;" vertex="1" parent="1">
          <mxGeometry x="136" y="1769" width="120" height="60" as="geometry" />
        </mxCell>
        <mxCell id="3wrw05tANonlnPxJcy26-35" value="COURSE TITLE" style="rounded=0;whiteSpace=wrap;html=1;fontFamily=Times New Roman;" vertex="1" parent="1">
          <mxGeometry x="256" y="1769" width="120" height="60" as="geometry" />
        </mxCell>
        <mxCell id="3wrw05tANonlnPxJcy26-36" value="DATE COMPLETED" style="rounded=0;whiteSpace=wrap;html=1;fontFamily=Times New Roman;" vertex="1" parent="1">
          <mxGeometry x="376" y="1769" width="120" height="60" as="geometry" />
        </mxCell>
        <mxCell id="3wrw05tANonlnPxJcy26-39" value="" style="endArrow=classic;html=1;rounded=0;strokeColor=default;entryX=0.5;entryY=1;entryDx=0;entryDy=0;exitX=0.5;exitY=1;exitDx=0;exitDy=0;endFill=1;fontFamily=Times New Roman;" edge="1" parent="1" source="3wrw05tANonlnPxJcy26-32" target="3wrw05tANonlnPxJcy26-35">
          <mxGeometry width="50" height="50" relative="1" as="geometry">
            <mxPoint x="-43" y="1859" as="sourcePoint" />
            <mxPoint x="335" y="1859" as="targetPoint" />
            <Array as="points">
              <mxPoint x="-44" y="1863" />
              <mxPoint x="316" y="1863" />
            </Array>
          </mxGeometry>
        </mxCell>
        <mxCell id="3wrw05tANonlnPxJcy26-37" value="" style="endArrow=classic;html=1;rounded=0;strokeColor=default;exitX=0.5;exitY=1;exitDx=0;exitDy=0;entryX=0.5;entryY=1;entryDx=0;entryDy=0;endFill=1;fontFamily=Times New Roman;" edge="1" parent="1" source="3wrw05tANonlnPxJcy26-31" target="3wrw05tANonlnPxJcy26-34">
          <mxGeometry width="50" height="50" relative="1" as="geometry">
            <mxPoint x="-199" y="1887" as="sourcePoint" />
            <mxPoint x="253" y="1902" as="targetPoint" />
            <Array as="points">
              <mxPoint x="-164" y="1890" />
              <mxPoint x="28" y="1890" />
              <mxPoint x="196" y="1890" />
            </Array>
          </mxGeometry>
        </mxCell>
        <mxCell id="3wrw05tANonlnPxJcy26-38" value="" style="endArrow=classic;html=1;rounded=0;strokeColor=default;entryX=0.463;entryY=1.004;entryDx=0;entryDy=0;entryPerimeter=0;endFill=1;fontFamily=Times New Roman;" edge="1" parent="1" target="3wrw05tANonlnPxJcy26-33">
          <mxGeometry width="50" height="50" relative="1" as="geometry">
            <mxPoint x="73" y="1890" as="sourcePoint" />
            <mxPoint x="123" y="1840" as="targetPoint" />
            <Array as="points" />
          </mxGeometry>
        </mxCell>
        <mxCell id="3wrw05tANonlnPxJcy26-40" value="" style="endArrow=classic;html=1;rounded=0;strokeColor=default;exitX=0.5;exitY=0;exitDx=0;exitDy=0;entryX=0.5;entryY=0;entryDx=0;entryDy=0;endFill=1;fontFamily=Times New Roman;" edge="1" parent="1" source="3wrw05tANonlnPxJcy26-31" target="3wrw05tANonlnPxJcy26-36">
          <mxGeometry width="50" height="50" relative="1" as="geometry">
            <mxPoint x="-163" y="1762" as="sourcePoint" />
            <mxPoint x="-44" y="1715" as="targetPoint" />
            <Array as="points">
              <mxPoint x="-164" y="1715" />
              <mxPoint x="436" y="1715" />
            </Array>
          </mxGeometry>
        </mxCell>
        <mxCell id="3wrw05tANonlnPxJcy26-41" value="" style="endArrow=none;html=1;rounded=0;strokeColor=default;exitX=0.5;exitY=0;exitDx=0;exitDy=0;fontFamily=Times New Roman;" edge="1" parent="1" source="3wrw05tANonlnPxJcy26-32">
          <mxGeometry width="50" height="50" relative="1" as="geometry">
            <mxPoint x="-43" y="1706" as="sourcePoint" />
            <mxPoint x="-44" y="1711" as="targetPoint" />
          </mxGeometry>
        </mxCell>
        <mxCell id="3wrw05tANonlnPxJcy26-42" value="&lt;u&gt;&lt;b&gt;EMPLOYEE ID&lt;/b&gt;&lt;/u&gt;" style="rounded=0;whiteSpace=wrap;html=1;fontFamily=Times New Roman;" vertex="1" parent="1">
          <mxGeometry x="-232" y="2119" width="120" height="60" as="geometry" />
        </mxCell>
        <mxCell id="3wrw05tANonlnPxJcy26-43" value="&lt;u&gt;&lt;b&gt;COURSE ID&lt;/b&gt;&lt;/u&gt;" style="rounded=0;whiteSpace=wrap;html=1;fontFamily=Times New Roman;" vertex="1" parent="1">
          <mxGeometry x="-112" y="2119" width="120" height="60" as="geometry" />
        </mxCell>
        <mxCell id="3wrw05tANonlnPxJcy26-44" value="&lt;u&gt;&lt;b&gt;CERTIFICATE&amp;nbsp;&lt;br&gt;NUMBER&lt;/b&gt;&lt;/u&gt;" style="rounded=0;whiteSpace=wrap;html=1;fontFamily=Times New Roman;" vertex="1" parent="1">
          <mxGeometry x="8" y="2119" width="120" height="60" as="geometry" />
        </mxCell>
        <mxCell id="3wrw05tANonlnPxJcy26-45" value="EMPLOYEE NAME" style="rounded=0;whiteSpace=wrap;html=1;fontFamily=Times New Roman;" vertex="1" parent="1">
          <mxGeometry x="128" y="2119" width="120" height="60" as="geometry" />
        </mxCell>
        <mxCell id="3wrw05tANonlnPxJcy26-46" value="BIRTH DATE" style="rounded=0;whiteSpace=wrap;html=1;fontFamily=Times New Roman;" vertex="1" parent="1">
          <mxGeometry x="248" y="2119" width="120" height="60" as="geometry" />
        </mxCell>
        <mxCell id="3wrw05tANonlnPxJcy26-47" value="COURSE TITLE" style="rounded=0;whiteSpace=wrap;html=1;fontFamily=Times New Roman;" vertex="1" parent="1">
          <mxGeometry x="368" y="2119" width="120" height="60" as="geometry" />
        </mxCell>
        <mxCell id="3wrw05tANonlnPxJcy26-48" value="DATE COMPLETED" style="rounded=0;whiteSpace=wrap;html=1;fontFamily=Times New Roman;" vertex="1" parent="1">
          <mxGeometry x="488" y="2119" width="120" height="60" as="geometry" />
        </mxCell>
        <mxCell id="3wrw05tANonlnPxJcy26-49" value="" style="endArrow=classic;html=1;rounded=0;strokeColor=default;exitX=0.5;exitY=0;exitDx=0;exitDy=0;entryX=0.5;entryY=0;entryDx=0;entryDy=0;endFill=1;fontFamily=Times New Roman;" edge="1" parent="1" source="3wrw05tANonlnPxJcy26-43" target="3wrw05tANonlnPxJcy26-48">
          <mxGeometry width="50" height="50" relative="1" as="geometry">
            <mxPoint x="-62" y="2110" as="sourcePoint" />
            <mxPoint x="533" y="2080" as="targetPoint" />
            <Array as="points">
              <mxPoint x="-52" y="2080" />
              <mxPoint x="548" y="2080" />
            </Array>
          </mxGeometry>
        </mxCell>
        <mxCell id="3wrw05tANonlnPxJcy26-50" value="" style="endArrow=none;html=1;rounded=0;strokeColor=default;exitX=0.5;exitY=0;exitDx=0;exitDy=0;fontFamily=Times New Roman;" edge="1" parent="1" source="3wrw05tANonlnPxJcy26-44">
          <mxGeometry width="50" height="50" relative="1" as="geometry">
            <mxPoint x="68" y="2109" as="sourcePoint" />
            <mxPoint x="68" y="2080" as="targetPoint" />
          </mxGeometry>
        </mxCell>
        <mxCell id="3wrw05tANonlnPxJcy26-51" value="" style="endArrow=classic;html=1;rounded=0;strokeColor=default;exitX=0.5;exitY=1;exitDx=0;exitDy=0;entryX=0.5;entryY=1;entryDx=0;entryDy=0;endFill=1;fontFamily=Times New Roman;" edge="1" parent="1" source="3wrw05tANonlnPxJcy26-42" target="3wrw05tANonlnPxJcy26-48">
          <mxGeometry width="50" height="50" relative="1" as="geometry">
            <mxPoint x="-161" y="2285" as="sourcePoint" />
            <mxPoint x="559" y="2285" as="targetPoint" />
            <Array as="points">
              <mxPoint x="-172" y="2254" />
              <mxPoint x="548" y="2254" />
            </Array>
          </mxGeometry>
        </mxCell>
        <mxCell id="3wrw05tANonlnPxJcy26-52" value="" style="endArrow=none;html=1;rounded=0;strokeColor=default;entryX=0.5;entryY=1;entryDx=0;entryDy=0;fontFamily=Times New Roman;" edge="1" parent="1" target="3wrw05tANonlnPxJcy26-44">
          <mxGeometry width="50" height="50" relative="1" as="geometry">
            <mxPoint x="68" y="2255" as="sourcePoint" />
            <mxPoint x="159" y="2344" as="targetPoint" />
          </mxGeometry>
        </mxCell>
        <mxCell id="3wrw05tANonlnPxJcy26-53" value="" style="endArrow=classic;html=1;rounded=0;strokeColor=default;entryX=0.5;entryY=1;entryDx=0;entryDy=0;exitX=0.5;exitY=1;exitDx=0;exitDy=0;endFill=1;fontFamily=Times New Roman;" edge="1" parent="1" source="3wrw05tANonlnPxJcy26-43" target="3wrw05tANonlnPxJcy26-47">
          <mxGeometry width="50" height="50" relative="1" as="geometry">
            <mxPoint x="28" y="2368" as="sourcePoint" />
            <mxPoint x="78" y="2318" as="targetPoint" />
            <Array as="points">
              <mxPoint x="-52" y="2212" />
              <mxPoint x="428" y="2212" />
            </Array>
          </mxGeometry>
        </mxCell>
        <mxCell id="3wrw05tANonlnPxJcy26-54" value="" style="endArrow=classic;html=1;rounded=0;strokeColor=default;exitX=0.624;exitY=0.996;exitDx=0;exitDy=0;exitPerimeter=0;entryX=0.551;entryY=1.033;entryDx=0;entryDy=0;entryPerimeter=0;endFill=1;fontFamily=Times New Roman;" edge="1" parent="1" source="3wrw05tANonlnPxJcy26-42" target="3wrw05tANonlnPxJcy26-46">
          <mxGeometry width="50" height="50" relative="1" as="geometry">
            <mxPoint x="-11" y="2355" as="sourcePoint" />
            <mxPoint x="39" y="2305" as="targetPoint" />
            <Array as="points">
              <mxPoint x="-157" y="2230" />
              <mxPoint x="314" y="2230" />
            </Array>
          </mxGeometry>
        </mxCell>
        <mxCell id="3wrw05tANonlnPxJcy26-55" value="" style="endArrow=classic;html=1;rounded=0;strokeColor=default;entryX=0.5;entryY=1;entryDx=0;entryDy=0;endFill=1;fontFamily=Times New Roman;" edge="1" parent="1" target="3wrw05tANonlnPxJcy26-45">
          <mxGeometry width="50" height="50" relative="1" as="geometry">
            <mxPoint x="188" y="2230" as="sourcePoint" />
            <mxPoint x="250" y="2290" as="targetPoint" />
          </mxGeometry>
        </mxCell>
        <mxCell id="3wrw05tANonlnPxJcy26-56" value="&lt;u&gt;&lt;b&gt;EMPLOYEE ID&lt;/b&gt;&lt;/u&gt;" style="rounded=0;whiteSpace=wrap;html=1;fontFamily=Times New Roman;" vertex="1" parent="1">
          <mxGeometry x="-54" y="2521" width="120" height="60" as="geometry" />
        </mxCell>
        <mxCell id="3wrw05tANonlnPxJcy26-57" value="COURSE TITLE" style="rounded=0;whiteSpace=wrap;html=1;fontFamily=Times New Roman;" vertex="1" parent="1">
          <mxGeometry x="66" y="2521" width="120" height="60" as="geometry" />
        </mxCell>
        <mxCell id="3wrw05tANonlnPxJcy26-58" value="&lt;u&gt;&lt;b&gt;COURSE ID&lt;/b&gt;&lt;/u&gt;" style="rounded=0;whiteSpace=wrap;html=1;fontFamily=Times New Roman;" vertex="1" parent="1">
          <mxGeometry x="186" y="2521" width="120" height="60" as="geometry" />
        </mxCell>
        <mxCell id="3wrw05tANonlnPxJcy26-59" value="" style="endArrow=classic;html=1;rounded=0;strokeColor=default;entryX=0.5;entryY=1;entryDx=0;entryDy=0;endFill=1;fontFamily=Times New Roman;" edge="1" parent="1" target="3wrw05tANonlnPxJcy26-57">
          <mxGeometry width="50" height="50" relative="1" as="geometry">
            <mxPoint x="126" y="2635" as="sourcePoint" />
            <mxPoint x="144" y="2606" as="targetPoint" />
          </mxGeometry>
        </mxCell>
        <mxCell id="3wrw05tANonlnPxJcy26-60" value="" style="endArrow=none;html=1;rounded=0;strokeColor=default;entryX=0.547;entryY=1.01;entryDx=0;entryDy=0;exitX=0.5;exitY=1;exitDx=0;exitDy=0;entryPerimeter=0;fontFamily=Times New Roman;" edge="1" parent="1" source="3wrw05tANonlnPxJcy26-56" target="3wrw05tANonlnPxJcy26-58">
          <mxGeometry width="50" height="50" relative="1" as="geometry">
            <mxPoint x="42" y="2676" as="sourcePoint" />
            <mxPoint x="256" y="2588" as="targetPoint" />
            <Array as="points">
              <mxPoint x="6" y="2632" />
              <mxPoint x="252" y="2632" />
            </Array>
          </mxGeometry>
        </mxCell>
        <mxCell id="3wrw05tANonlnPxJcy26-62" value="&lt;b&gt;&lt;u&gt;EMPLOYEE ID&lt;/u&gt;&lt;/b&gt;" style="rounded=0;whiteSpace=wrap;html=1;fontFamily=Times New Roman;" vertex="1" parent="1">
          <mxGeometry x="-209" y="2835" width="120" height="60" as="geometry" />
        </mxCell>
        <mxCell id="3wrw05tANonlnPxJcy26-63" value="&lt;b&gt;&lt;u&gt;SKILL CODE&lt;/u&gt;&lt;/b&gt;" style="rounded=0;whiteSpace=wrap;html=1;fontFamily=Times New Roman;" vertex="1" parent="1">
          <mxGeometry x="-89" y="2835" width="120" height="60" as="geometry" />
        </mxCell>
        <mxCell id="3wrw05tANonlnPxJcy26-64" value="EMPLOYEE NAME" style="rounded=0;whiteSpace=wrap;html=1;fontFamily=Times New Roman;" vertex="1" parent="1">
          <mxGeometry x="31" y="2835" width="120" height="60" as="geometry" />
        </mxCell>
        <mxCell id="3wrw05tANonlnPxJcy26-72" value="" style="edgeStyle=orthogonalEdgeStyle;rounded=0;orthogonalLoop=1;jettySize=auto;html=1;startFill=1;endArrow=classic;endFill=1;strokeColor=default;fontFamily=Times New Roman;" edge="1" parent="1" target="3wrw05tANonlnPxJcy26-65">
          <mxGeometry relative="1" as="geometry">
            <mxPoint x="211" y="2920" as="sourcePoint" />
          </mxGeometry>
        </mxCell>
        <mxCell id="3wrw05tANonlnPxJcy26-65" value="SKILL TITLE" style="rounded=0;whiteSpace=wrap;html=1;fontFamily=Times New Roman;" vertex="1" parent="1">
          <mxGeometry x="151" y="2835" width="120" height="60" as="geometry" />
        </mxCell>
        <mxCell id="3wrw05tANonlnPxJcy26-66" value="SKILL TYPE" style="rounded=0;whiteSpace=wrap;html=1;fontFamily=Times New Roman;" vertex="1" parent="1">
          <mxGeometry x="271" y="2835" width="120" height="60" as="geometry" />
        </mxCell>
        <mxCell id="3wrw05tANonlnPxJcy26-67" value="POSSESSION" style="rounded=0;whiteSpace=wrap;html=1;fontFamily=Times New Roman;" vertex="1" parent="1">
          <mxGeometry x="391" y="2835" width="120" height="60" as="geometry" />
        </mxCell>
        <mxCell id="3wrw05tANonlnPxJcy26-68" value="" style="endArrow=classic;html=1;rounded=0;strokeColor=default;exitX=0.5;exitY=1;exitDx=0;exitDy=0;entryX=0.558;entryY=1;entryDx=0;entryDy=0;entryPerimeter=0;endFill=1;fontFamily=Times New Roman;" edge="1" parent="1" source="3wrw05tANonlnPxJcy26-62" target="3wrw05tANonlnPxJcy26-67">
          <mxGeometry width="50" height="50" relative="1" as="geometry">
            <mxPoint x="14" y="3025" as="sourcePoint" />
            <mxPoint x="451" y="2956" as="targetPoint" />
            <Array as="points">
              <mxPoint x="-149" y="2956" />
              <mxPoint x="458" y="2956" />
            </Array>
          </mxGeometry>
        </mxCell>
        <mxCell id="3wrw05tANonlnPxJcy26-69" value="" style="endArrow=none;html=1;rounded=0;strokeColor=default;fontFamily=Times New Roman;" edge="1" parent="1">
          <mxGeometry width="50" height="50" relative="1" as="geometry">
            <mxPoint x="-32" y="2956" as="sourcePoint" />
            <mxPoint x="-32" y="2895" as="targetPoint" />
          </mxGeometry>
        </mxCell>
        <mxCell id="3wrw05tANonlnPxJcy26-70" value="" style="endArrow=classic;html=1;rounded=0;strokeColor=default;entryX=0.5;entryY=1;entryDx=0;entryDy=0;endFill=1;fontFamily=Times New Roman;" edge="1" parent="1" target="3wrw05tANonlnPxJcy26-66">
          <mxGeometry width="50" height="50" relative="1" as="geometry">
            <mxPoint x="-32" y="2920" as="sourcePoint" />
            <mxPoint x="384" y="2920" as="targetPoint" />
            <Array as="points">
              <mxPoint x="331" y="2920" />
            </Array>
          </mxGeometry>
        </mxCell>
        <mxCell id="3wrw05tANonlnPxJcy26-73" value="" style="endArrow=classic;html=1;rounded=0;strokeColor=default;exitX=0.46;exitY=0.007;exitDx=0;exitDy=0;exitPerimeter=0;entryX=0.596;entryY=-0.017;entryDx=0;entryDy=0;entryPerimeter=0;endFill=1;fontFamily=Times New Roman;" edge="1" parent="1" source="3wrw05tANonlnPxJcy26-62" target="3wrw05tANonlnPxJcy26-64">
          <mxGeometry width="50" height="50" relative="1" as="geometry">
            <mxPoint x="-117" y="2805" as="sourcePoint" />
            <mxPoint x="-67" y="2755" as="targetPoint" />
            <Array as="points">
              <mxPoint x="-154" y="2778" />
              <mxPoint x="103" y="2778" />
            </Array>
          </mxGeometry>
        </mxCell>
        <mxCell id="3wrw05tANonlnPxJcy26-74" value="&lt;b&gt;&lt;u&gt;MOVIE NAME&lt;/u&gt;&lt;/b&gt;" style="rounded=0;whiteSpace=wrap;html=1;fontFamily=Times New Roman;" vertex="1" parent="1">
          <mxGeometry x="-80" y="3076" width="120" height="60" as="geometry" />
        </mxCell>
        <mxCell id="3wrw05tANonlnPxJcy26-75" value="COPY NUMBER" style="rounded=0;whiteSpace=wrap;html=1;fontFamily=Times New Roman;" vertex="1" parent="1">
          <mxGeometry x="40" y="3076" width="120" height="60" as="geometry" />
        </mxCell>
        <mxCell id="3wrw05tANonlnPxJcy26-76" value="&lt;b&gt;&lt;u&gt;PRODUCT ID&lt;/u&gt;&lt;/b&gt;" style="rounded=0;whiteSpace=wrap;html=1;fontFamily=Times New Roman;" vertex="1" parent="1">
          <mxGeometry x="-183" y="3282" width="120" height="60" as="geometry" />
        </mxCell>
        <mxCell id="3wrw05tANonlnPxJcy26-77" value="&lt;b&gt;&lt;u&gt;PRICE HISTORY&lt;/u&gt;&lt;/b&gt;" style="rounded=0;whiteSpace=wrap;html=1;fontFamily=Times New Roman;" vertex="1" parent="1">
          <mxGeometry x="-63" y="3282" width="120" height="60" as="geometry" />
        </mxCell>
        <mxCell id="3wrw05tANonlnPxJcy26-78" value="EFFECTIVE DATE,&lt;br&gt;PRICE" style="rounded=0;whiteSpace=wrap;html=1;fontFamily=Times New Roman;" vertex="1" parent="1">
          <mxGeometry x="57" y="3282" width="120" height="60" as="geometry" />
        </mxCell>
        <mxCell id="3wrw05tANonlnPxJcy26-79" value="" style="endArrow=classic;html=1;rounded=0;strokeColor=default;exitX=0.45;exitY=1.017;exitDx=0;exitDy=0;exitPerimeter=0;entryX=0.5;entryY=1;entryDx=0;entryDy=0;endFill=1;fontFamily=Times New Roman;" edge="1" parent="1" source="3wrw05tANonlnPxJcy26-76" target="3wrw05tANonlnPxJcy26-78">
          <mxGeometry width="50" height="50" relative="1" as="geometry">
            <mxPoint x="-57" y="3456" as="sourcePoint" />
            <mxPoint x="147" y="3406" as="targetPoint" />
            <Array as="points">
              <mxPoint x="-129" y="3406" />
              <mxPoint x="117" y="3406" />
            </Array>
          </mxGeometry>
        </mxCell>
        <mxCell id="3wrw05tANonlnPxJcy26-81" value="" style="endArrow=classic;html=1;rounded=0;strokeColor=default;entryX=0.5;entryY=1;entryDx=0;entryDy=0;endFill=1;fontFamily=Times New Roman;" edge="1" parent="1" target="3wrw05tANonlnPxJcy26-77">
          <mxGeometry width="50" height="50" relative="1" as="geometry">
            <mxPoint x="-3" y="3405" as="sourcePoint" />
            <mxPoint x="46" y="3424" as="targetPoint" />
          </mxGeometry>
        </mxCell>
        <mxCell id="3wrw05tANonlnPxJcy26-82" value="" style="endArrow=classic;html=1;rounded=0;strokeColor=default;exitX=0.5;exitY=0;exitDx=0;exitDy=0;entryX=0.5;entryY=0;entryDx=0;entryDy=0;endFill=1;fontFamily=Times New Roman;" edge="1" parent="1" source="3wrw05tANonlnPxJcy26-77" target="3wrw05tANonlnPxJcy26-78">
          <mxGeometry width="50" height="50" relative="1" as="geometry">
            <mxPoint x="-2" y="3259" as="sourcePoint" />
            <mxPoint x="112" y="3201" as="targetPoint" />
            <Array as="points">
              <mxPoint x="-3" y="3246" />
              <mxPoint x="117" y="3246" />
            </Array>
          </mxGeometry>
        </mxCell>
        <mxCell id="3wrw05tANonlnPxJcy26-83" value="&lt;font style=&quot;font-size: 16px&quot;&gt;&lt;b&gt;Product&lt;/b&gt;&lt;/font&gt;" style="text;html=1;align=center;verticalAlign=middle;resizable=0;points=[];autosize=1;strokeColor=none;fillColor=none;fontFamily=Times New Roman;" vertex="1" parent="1">
          <mxGeometry x="-94" y="3251" width="65" height="19" as="geometry" />
        </mxCell>
        <mxCell id="3wrw05tANonlnPxJcy26-84" value="&lt;b&gt;Possession&lt;/b&gt;" style="text;html=1;align=center;verticalAlign=middle;resizable=0;points=[];autosize=1;strokeColor=none;fillColor=none;fontSize=16;fontFamily=Times New Roman;" vertex="1" parent="1">
          <mxGeometry x="-79" y="2794" width="81" height="23" as="geometry" />
        </mxCell>
        <mxCell id="3wrw05tANonlnPxJcy26-85" value="Pre-Requisite" style="text;html=1;align=center;verticalAlign=middle;resizable=0;points=[];autosize=1;strokeColor=none;fillColor=none;fontSize=16;fontFamily=Times New Roman;fontStyle=1" vertex="1" parent="1">
          <mxGeometry x="-36" y="2491" width="103" height="23" as="geometry" />
        </mxCell>
        <mxCell id="3wrw05tANonlnPxJcy26-86" value="&lt;b&gt;Certificate&lt;/b&gt;" style="text;html=1;align=center;verticalAlign=middle;resizable=0;points=[];autosize=1;strokeColor=none;fillColor=none;fontSize=16;fontFamily=Times New Roman;" vertex="1" parent="1">
          <mxGeometry x="-230" y="2079" width="83" height="23" as="geometry" />
        </mxCell>
        <mxCell id="3wrw05tANonlnPxJcy26-87" value="&lt;b&gt;Flight&lt;/b&gt;" style="text;html=1;align=center;verticalAlign=middle;resizable=0;points=[];autosize=1;strokeColor=none;fillColor=none;fontSize=16;fontFamily=Times New Roman;" vertex="1" parent="1">
          <mxGeometry x="-115" y="1358" width="51" height="23" as="geometry" />
        </mxCell>
        <mxCell id="3wrw05tANonlnPxJcy26-88" value="&lt;b&gt;Employee 2&lt;/b&gt;" style="text;html=1;align=center;verticalAlign=middle;resizable=0;points=[];autosize=1;strokeColor=none;fillColor=none;fontSize=16;fontFamily=Times New Roman;" vertex="1" parent="1">
          <mxGeometry x="-169" y="1691" width="90" height="23" as="geometry" />
        </mxCell>
        <mxCell id="3wrw05tANonlnPxJcy26-89" value="&lt;b&gt;Employee&lt;/b&gt;" style="text;html=1;align=center;verticalAlign=middle;resizable=0;points=[];autosize=1;strokeColor=none;fillColor=none;fontSize=16;fontFamily=Times New Roman;" vertex="1" parent="1">
          <mxGeometry x="-183" y="672" width="78" height="23" as="geometry" />
        </mxCell>
        <mxCell id="3wrw05tANonlnPxJcy26-90" value="Employee Number" style="rounded=0;whiteSpace=wrap;html=1;fontFamily=Times New Roman;spacingTop=0;fontStyle=5" vertex="1" parent="1">
          <mxGeometry x="944" y="217" width="120" height="60" as="geometry" />
        </mxCell>
        <mxCell id="3wrw05tANonlnPxJcy26-91" value="Employee Name" style="rounded=0;whiteSpace=wrap;html=1;fontFamily=Times New Roman;spacingTop=0;" vertex="1" parent="1">
          <mxGeometry x="1064" y="217" width="120" height="60" as="geometry" />
        </mxCell>
        <mxCell id="3wrw05tANonlnPxJcy26-92" value="Address" style="rounded=0;whiteSpace=wrap;html=1;fontFamily=Times New Roman;spacingTop=0;" vertex="1" parent="1">
          <mxGeometry x="1184" y="217" width="120" height="60" as="geometry" />
        </mxCell>
        <mxCell id="3wrw05tANonlnPxJcy26-93" value="Date Hired" style="rounded=0;whiteSpace=wrap;html=1;fontFamily=Times New Roman;spacingTop=0;" vertex="1" parent="1">
          <mxGeometry x="1304" y="217" width="120" height="60" as="geometry" />
        </mxCell>
        <mxCell id="3wrw05tANonlnPxJcy26-104" value="" style="edgeStyle=orthogonalEdgeStyle;rounded=0;orthogonalLoop=1;jettySize=auto;html=1;fontFamily=Times New Roman;fontSize=16;startFill=1;endArrow=classic;endFill=1;strokeColor=default;" edge="1" parent="1" source="3wrw05tANonlnPxJcy26-94" target="3wrw05tANonlnPxJcy26-90">
          <mxGeometry relative="1" as="geometry" />
        </mxCell>
        <mxCell id="3wrw05tANonlnPxJcy26-94" value="&lt;span&gt;Employee Number&lt;/span&gt;" style="rounded=0;whiteSpace=wrap;html=1;fontFamily=Times New Roman;spacingTop=0;fontStyle=5" vertex="1" parent="1">
          <mxGeometry x="944" y="360" width="120" height="60" as="geometry" />
        </mxCell>
        <mxCell id="3wrw05tANonlnPxJcy26-95" value="Hourly Rate" style="rounded=0;whiteSpace=wrap;html=1;fontFamily=Times New Roman;spacingTop=0;" vertex="1" parent="1">
          <mxGeometry x="1064" y="360" width="120" height="60" as="geometry" />
        </mxCell>
        <mxCell id="3wrw05tANonlnPxJcy26-103" value="" style="edgeStyle=orthogonalEdgeStyle;rounded=0;orthogonalLoop=1;jettySize=auto;html=1;fontFamily=Times New Roman;fontSize=16;startFill=1;endArrow=classic;endFill=1;strokeColor=default;" edge="1" parent="1" source="3wrw05tANonlnPxJcy26-96" target="3wrw05tANonlnPxJcy26-94">
          <mxGeometry relative="1" as="geometry" />
        </mxCell>
        <mxCell id="3wrw05tANonlnPxJcy26-96" value="&lt;span&gt;Employee Number&lt;/span&gt;" style="rounded=0;whiteSpace=wrap;html=1;fontFamily=Times New Roman;spacingTop=0;fontStyle=5" vertex="1" parent="1">
          <mxGeometry x="944" y="494" width="120" height="60" as="geometry" />
        </mxCell>
        <mxCell id="3wrw05tANonlnPxJcy26-97" value="Annual Salary" style="rounded=0;whiteSpace=wrap;html=1;fontFamily=Times New Roman;spacingTop=0;" vertex="1" parent="1">
          <mxGeometry x="1064" y="494" width="120" height="60" as="geometry" />
        </mxCell>
        <mxCell id="3wrw05tANonlnPxJcy26-98" value="Stock Option" style="rounded=0;whiteSpace=wrap;html=1;fontFamily=Times New Roman;spacingTop=0;" vertex="1" parent="1">
          <mxGeometry x="1184" y="494" width="120" height="60" as="geometry" />
        </mxCell>
        <mxCell id="3wrw05tANonlnPxJcy26-102" value="" style="edgeStyle=orthogonalEdgeStyle;rounded=0;orthogonalLoop=1;jettySize=auto;html=1;fontFamily=Times New Roman;fontSize=16;startFill=1;endArrow=classic;endFill=1;strokeColor=default;" edge="1" parent="1" source="3wrw05tANonlnPxJcy26-99" target="3wrw05tANonlnPxJcy26-96">
          <mxGeometry relative="1" as="geometry" />
        </mxCell>
        <mxCell id="3wrw05tANonlnPxJcy26-99" value="&lt;span&gt;Employee Number&lt;/span&gt;" style="rounded=0;whiteSpace=wrap;html=1;fontFamily=Times New Roman;spacingTop=0;fontStyle=5" vertex="1" parent="1">
          <mxGeometry x="944" y="635" width="120" height="60" as="geometry" />
        </mxCell>
        <mxCell id="3wrw05tANonlnPxJcy26-100" value="Contact Number" style="rounded=0;whiteSpace=wrap;html=1;fontFamily=Times New Roman;spacingTop=0;" vertex="1" parent="1">
          <mxGeometry x="1064" y="635" width="120" height="60" as="geometry" />
        </mxCell>
        <mxCell id="3wrw05tANonlnPxJcy26-101" value="Billing Rate" style="rounded=0;whiteSpace=wrap;html=1;fontFamily=Times New Roman;spacingTop=0;" vertex="1" parent="1">
          <mxGeometry x="1184" y="635" width="120" height="60" as="geometry" />
        </mxCell>
        <mxCell id="3wrw05tANonlnPxJcy26-105" value="Employee" style="text;html=1;align=center;verticalAlign=middle;resizable=0;points=[];autosize=1;strokeColor=none;fillColor=none;fontSize=16;fontFamily=Times New Roman;fontStyle=1" vertex="1" parent="1">
          <mxGeometry x="1013" y="179" width="78" height="23" as="geometry" />
        </mxCell>
        <mxCell id="3wrw05tANonlnPxJcy26-106" value="Hourly Rate" style="text;html=1;align=center;verticalAlign=middle;resizable=0;points=[];autosize=1;strokeColor=none;fillColor=none;fontSize=16;fontFamily=Times New Roman;fontStyle=1" vertex="1" parent="1">
          <mxGeometry x="1014" y="330" width="95" height="23" as="geometry" />
        </mxCell>
        <mxCell id="3wrw05tANonlnPxJcy26-107" value="Salaried Employee" style="text;html=1;align=center;verticalAlign=middle;resizable=0;points=[];autosize=1;strokeColor=none;fillColor=none;fontSize=16;fontFamily=Times New Roman;fontStyle=1" vertex="1" parent="1">
          <mxGeometry x="1015" y="468" width="138" height="23" as="geometry" />
        </mxCell>
        <mxCell id="3wrw05tANonlnPxJcy26-108" value="Consultant" style="text;html=1;align=center;verticalAlign=middle;resizable=0;points=[];autosize=1;strokeColor=none;fillColor=none;fontSize=16;fontFamily=Times New Roman;fontStyle=1" vertex="1" parent="1">
          <mxGeometry x="1032" y="611" width="86" height="23" as="geometry" />
        </mxCell>
        <mxCell id="3wrw05tANonlnPxJcy26-113" value="Patient ID" style="rounded=0;whiteSpace=wrap;html=1;fontFamily=Times New Roman;fontStyle=5" vertex="1" parent="1">
          <mxGeometry x="944" y="845" width="120" height="60" as="geometry" />
        </mxCell>
        <mxCell id="3wrw05tANonlnPxJcy26-114" value="Patient Name" style="rounded=0;whiteSpace=wrap;html=1;fontFamily=Times New Roman;" vertex="1" parent="1">
          <mxGeometry x="1064" y="845" width="120" height="60" as="geometry" />
        </mxCell>
        <mxCell id="3wrw05tANonlnPxJcy26-115" value="Admit Date" style="rounded=0;whiteSpace=wrap;html=1;fontFamily=Times New Roman;" vertex="1" parent="1">
          <mxGeometry x="1184" y="845" width="120" height="60" as="geometry" />
        </mxCell>
        <mxCell id="3wrw05tANonlnPxJcy26-127" value="" style="edgeStyle=orthogonalEdgeStyle;rounded=0;orthogonalLoop=1;jettySize=auto;html=1;fontFamily=Times New Roman;fontSize=16;startFill=1;endArrow=classic;endFill=1;strokeColor=default;" edge="1" parent="1" source="3wrw05tANonlnPxJcy26-116" target="3wrw05tANonlnPxJcy26-113">
          <mxGeometry relative="1" as="geometry" />
        </mxCell>
        <mxCell id="3wrw05tANonlnPxJcy26-116" value="&lt;span&gt;Patient ID&lt;/span&gt;" style="rounded=0;whiteSpace=wrap;html=1;fontFamily=Times New Roman;fontStyle=5" vertex="1" parent="1">
          <mxGeometry x="944" y="992" width="120" height="60" as="geometry" />
        </mxCell>
        <mxCell id="3wrw05tANonlnPxJcy26-117" value="Physician ID" style="rounded=0;whiteSpace=wrap;html=1;fontFamily=Times New Roman;fontStyle=5" vertex="1" parent="1">
          <mxGeometry x="1064" y="992" width="120" height="60" as="geometry" />
        </mxCell>
        <mxCell id="3wrw05tANonlnPxJcy26-126" value="" style="edgeStyle=orthogonalEdgeStyle;rounded=0;orthogonalLoop=1;jettySize=auto;html=1;fontFamily=Times New Roman;fontSize=16;startFill=1;endArrow=classic;endFill=1;strokeColor=default;" edge="1" parent="1" source="3wrw05tANonlnPxJcy26-118" target="3wrw05tANonlnPxJcy26-116">
          <mxGeometry relative="1" as="geometry" />
        </mxCell>
        <mxCell id="3wrw05tANonlnPxJcy26-118" value="&lt;span&gt;Patient ID&lt;/span&gt;" style="rounded=0;whiteSpace=wrap;html=1;fontFamily=Times New Roman;fontStyle=5" vertex="1" parent="1">
          <mxGeometry x="944" y="1133" width="120" height="60" as="geometry" />
        </mxCell>
        <mxCell id="3wrw05tANonlnPxJcy26-119" value="Checkback Date" style="rounded=0;whiteSpace=wrap;html=1;fontFamily=Times New Roman;" vertex="1" parent="1">
          <mxGeometry x="1064" y="1133" width="120" height="60" as="geometry" />
        </mxCell>
        <mxCell id="3wrw05tANonlnPxJcy26-125" value="" style="edgeStyle=orthogonalEdgeStyle;rounded=0;orthogonalLoop=1;jettySize=auto;html=1;fontFamily=Times New Roman;fontSize=16;startFill=1;endArrow=classic;endFill=1;strokeColor=default;" edge="1" parent="1" source="3wrw05tANonlnPxJcy26-120" target="3wrw05tANonlnPxJcy26-118">
          <mxGeometry relative="1" as="geometry" />
        </mxCell>
        <mxCell id="3wrw05tANonlnPxJcy26-120" value="&lt;span&gt;Patient ID&lt;/span&gt;" style="rounded=0;whiteSpace=wrap;html=1;fontFamily=Times New Roman;fontStyle=5" vertex="1" parent="1">
          <mxGeometry x="944" y="1280" width="120" height="60" as="geometry" />
        </mxCell>
        <mxCell id="3wrw05tANonlnPxJcy26-121" value="Date Discharged" style="rounded=0;whiteSpace=wrap;html=1;fontFamily=Times New Roman;" vertex="1" parent="1">
          <mxGeometry x="1064" y="1280" width="120" height="60" as="geometry" />
        </mxCell>
        <mxCell id="3wrw05tANonlnPxJcy26-124" value="" style="edgeStyle=orthogonalEdgeStyle;rounded=0;orthogonalLoop=1;jettySize=auto;html=1;fontFamily=Times New Roman;fontSize=16;startFill=1;endArrow=classic;endFill=1;strokeColor=default;" edge="1" parent="1" source="3wrw05tANonlnPxJcy26-122" target="3wrw05tANonlnPxJcy26-120">
          <mxGeometry relative="1" as="geometry" />
        </mxCell>
        <mxCell id="3wrw05tANonlnPxJcy26-122" value="&lt;span&gt;&lt;b&gt;&lt;u&gt;Patient ID&lt;/u&gt;&lt;/b&gt;&lt;/span&gt;" style="rounded=0;whiteSpace=wrap;html=1;fontFamily=Times New Roman;" vertex="1" parent="1">
          <mxGeometry x="944" y="1437" width="120" height="60" as="geometry" />
        </mxCell>
        <mxCell id="3wrw05tANonlnPxJcy26-123" value="&lt;b&gt;&lt;u&gt;BED ID&lt;/u&gt;&lt;/b&gt;" style="rounded=0;whiteSpace=wrap;html=1;fontFamily=Times New Roman;" vertex="1" parent="1">
          <mxGeometry x="1064" y="1437" width="120" height="60" as="geometry" />
        </mxCell>
        <mxCell id="3wrw05tANonlnPxJcy26-128" value="&lt;b&gt;Patient&lt;/b&gt;" style="text;html=1;align=center;verticalAlign=middle;resizable=0;points=[];autosize=1;strokeColor=none;fillColor=none;fontSize=16;fontFamily=Times New Roman;" vertex="1" parent="1">
          <mxGeometry x="947" y="812" width="59" height="23" as="geometry" />
        </mxCell>
        <mxCell id="3wrw05tANonlnPxJcy26-129" value="Responsible Physician" style="text;html=1;align=center;verticalAlign=middle;resizable=0;points=[];autosize=1;strokeColor=none;fillColor=none;fontSize=16;fontFamily=Times New Roman;fontStyle=1" vertex="1" parent="1">
          <mxGeometry x="1010" y="959" width="162" height="23" as="geometry" />
        </mxCell>
        <mxCell id="3wrw05tANonlnPxJcy26-130" value="Out Patient" style="text;html=1;align=center;verticalAlign=middle;resizable=0;points=[];autosize=1;strokeColor=none;fillColor=none;fontSize=16;fontFamily=Times New Roman;fontStyle=1" vertex="1" parent="1">
          <mxGeometry x="1019" y="1097" width="90" height="23" as="geometry" />
        </mxCell>
        <mxCell id="3wrw05tANonlnPxJcy26-131" value="In Patient" style="text;html=1;align=center;verticalAlign=middle;resizable=0;points=[];autosize=1;strokeColor=none;fillColor=none;fontSize=16;fontFamily=Times New Roman;fontStyle=1" vertex="1" parent="1">
          <mxGeometry x="1028" y="1251" width="78" height="23" as="geometry" />
        </mxCell>
        <mxCell id="3wrw05tANonlnPxJcy26-132" value="Bed" style="text;html=1;align=center;verticalAlign=middle;resizable=0;points=[];autosize=1;strokeColor=none;fillColor=none;fontSize=16;fontFamily=Times New Roman;fontStyle=1" vertex="1" parent="1">
          <mxGeometry x="1044" y="1399" width="37" height="23" as="geometry" />
        </mxCell>
        <mxCell id="3wrw05tANonlnPxJcy26-133" value="Vehicle ID" style="rounded=0;whiteSpace=wrap;html=1;fontFamily=Times New Roman;fontStyle=5" vertex="1" parent="1">
          <mxGeometry x="944" y="1734" width="120" height="60" as="geometry" />
        </mxCell>
        <mxCell id="3wrw05tANonlnPxJcy26-134" value="Price" style="rounded=0;whiteSpace=wrap;html=1;fontFamily=Times New Roman;" vertex="1" parent="1">
          <mxGeometry x="1064" y="1734" width="120" height="60" as="geometry" />
        </mxCell>
        <mxCell id="3wrw05tANonlnPxJcy26-135" value="Engine Displacement" style="rounded=0;whiteSpace=wrap;html=1;fontFamily=Times New Roman;" vertex="1" parent="1">
          <mxGeometry x="1184" y="1734" width="120" height="60" as="geometry" />
        </mxCell>
        <mxCell id="3wrw05tANonlnPxJcy26-147" value="" style="edgeStyle=orthogonalEdgeStyle;rounded=0;orthogonalLoop=1;jettySize=auto;html=1;fontFamily=Times New Roman;fontSize=16;startFill=1;endArrow=classic;endFill=1;strokeColor=default;entryX=0.5;entryY=1;entryDx=0;entryDy=0;" edge="1" parent="1" source="3wrw05tANonlnPxJcy26-136" target="3wrw05tANonlnPxJcy26-137">
          <mxGeometry relative="1" as="geometry" />
        </mxCell>
        <mxCell id="3wrw05tANonlnPxJcy26-136" value="&lt;u&gt;Vehicle Name&lt;/u&gt;" style="rounded=0;whiteSpace=wrap;html=1;fontFamily=Times New Roman;" vertex="1" parent="1">
          <mxGeometry x="1304" y="1734" width="120" height="60" as="geometry" />
        </mxCell>
        <mxCell id="3wrw05tANonlnPxJcy26-137" value="Vehicle Name" style="rounded=0;whiteSpace=wrap;html=1;fontFamily=Times New Roman;fontStyle=5" vertex="1" parent="1">
          <mxGeometry x="1184" y="1597" width="120" height="60" as="geometry" />
        </mxCell>
        <mxCell id="3wrw05tANonlnPxJcy26-138" value="Make" style="rounded=0;whiteSpace=wrap;html=1;fontFamily=Times New Roman;" vertex="1" parent="1">
          <mxGeometry x="1304" y="1597" width="120" height="60" as="geometry" />
        </mxCell>
        <mxCell id="3wrw05tANonlnPxJcy26-139" value="Model" style="rounded=0;whiteSpace=wrap;html=1;fontFamily=Times New Roman;" vertex="1" parent="1">
          <mxGeometry x="1424" y="1597" width="120" height="60" as="geometry" />
        </mxCell>
        <mxCell id="3wrw05tANonlnPxJcy26-146" value="" style="edgeStyle=orthogonalEdgeStyle;rounded=0;orthogonalLoop=1;jettySize=auto;html=1;fontFamily=Times New Roman;fontSize=16;startFill=1;endArrow=classic;endFill=1;strokeColor=default;" edge="1" parent="1" source="3wrw05tANonlnPxJcy26-140" target="3wrw05tANonlnPxJcy26-133">
          <mxGeometry relative="1" as="geometry" />
        </mxCell>
        <mxCell id="3wrw05tANonlnPxJcy26-140" value="Vehicle ID" style="rounded=0;whiteSpace=wrap;html=1;fontFamily=Times New Roman;fontStyle=5" vertex="1" parent="1">
          <mxGeometry x="944" y="1878" width="120" height="60" as="geometry" />
        </mxCell>
        <mxCell id="3wrw05tANonlnPxJcy26-141" value="No. of Passengers" style="rounded=0;whiteSpace=wrap;html=1;fontFamily=Times New Roman;" vertex="1" parent="1">
          <mxGeometry x="1064" y="1878" width="120" height="60" as="geometry" />
        </mxCell>
        <mxCell id="3wrw05tANonlnPxJcy26-145" value="" style="edgeStyle=orthogonalEdgeStyle;rounded=0;orthogonalLoop=1;jettySize=auto;html=1;fontFamily=Times New Roman;fontSize=16;startFill=1;endArrow=classic;endFill=1;strokeColor=default;" edge="1" parent="1" source="3wrw05tANonlnPxJcy26-142" target="3wrw05tANonlnPxJcy26-140">
          <mxGeometry relative="1" as="geometry" />
        </mxCell>
        <mxCell id="3wrw05tANonlnPxJcy26-142" value="Vehicle ID" style="rounded=0;whiteSpace=wrap;html=1;fontFamily=Times New Roman;fontStyle=5" vertex="1" parent="1">
          <mxGeometry x="944" y="2037" width="120" height="60" as="geometry" />
        </mxCell>
        <mxCell id="3wrw05tANonlnPxJcy26-143" value="Capacity" style="rounded=0;whiteSpace=wrap;html=1;fontFamily=Times New Roman;" vertex="1" parent="1">
          <mxGeometry x="1064" y="2037" width="120" height="60" as="geometry" />
        </mxCell>
        <mxCell id="3wrw05tANonlnPxJcy26-144" value="Cab Type" style="rounded=0;whiteSpace=wrap;html=1;fontFamily=Times New Roman;" vertex="1" parent="1">
          <mxGeometry x="1184" y="2037" width="120" height="60" as="geometry" />
        </mxCell>
        <mxCell id="3wrw05tANonlnPxJcy26-148" value="&lt;b&gt;Truck&lt;/b&gt;" style="text;html=1;align=center;verticalAlign=middle;resizable=0;points=[];autosize=1;strokeColor=none;fillColor=none;fontSize=16;fontFamily=Times New Roman;" vertex="1" parent="1">
          <mxGeometry x="1095" y="2001" width="51" height="23" as="geometry" />
        </mxCell>
        <mxCell id="3wrw05tANonlnPxJcy26-149" value="&lt;b&gt;Car&lt;/b&gt;" style="text;html=1;align=center;verticalAlign=middle;resizable=0;points=[];autosize=1;strokeColor=none;fillColor=none;fontSize=16;fontFamily=Times New Roman;" vertex="1" parent="1">
          <mxGeometry x="1072.5" y="1841" width="37" height="23" as="geometry" />
        </mxCell>
        <mxCell id="3wrw05tANonlnPxJcy26-150" value="&lt;b&gt;Vehicle&lt;/b&gt;" style="text;html=1;align=center;verticalAlign=middle;resizable=0;points=[];autosize=1;strokeColor=none;fillColor=none;fontSize=16;fontFamily=Times New Roman;" vertex="1" parent="1">
          <mxGeometry x="1022" y="1700" width="59" height="23" as="geometry" />
        </mxCell>
        <mxCell id="3wrw05tANonlnPxJcy26-151" value="&lt;span&gt;Patient ID&lt;/span&gt;" style="rounded=0;whiteSpace=wrap;html=1;fontFamily=Times New Roman;fontStyle=5" vertex="1" parent="1">
          <mxGeometry x="944" y="2580" width="120" height="60" as="geometry" />
        </mxCell>
        <mxCell id="3wrw05tANonlnPxJcy26-152" value="Physician ID" style="rounded=0;whiteSpace=wrap;html=1;fontFamily=Times New Roman;fontStyle=5" vertex="1" parent="1">
          <mxGeometry x="1064" y="2580" width="120" height="60" as="geometry" />
        </mxCell>
        <mxCell id="3wrw05tANonlnPxJcy26-153" value="" style="edgeStyle=orthogonalEdgeStyle;rounded=0;orthogonalLoop=1;jettySize=auto;html=1;fontFamily=Times New Roman;fontSize=16;startFill=1;endArrow=classic;endFill=1;strokeColor=default;" edge="1" parent="1" source="3wrw05tANonlnPxJcy26-154" target="3wrw05tANonlnPxJcy26-151">
          <mxGeometry relative="1" as="geometry" />
        </mxCell>
        <mxCell id="3wrw05tANonlnPxJcy26-154" value="&lt;span&gt;Patient ID&lt;/span&gt;" style="rounded=0;whiteSpace=wrap;html=1;fontFamily=Times New Roman;fontStyle=5" vertex="1" parent="1">
          <mxGeometry x="944" y="2721" width="120" height="60" as="geometry" />
        </mxCell>
        <mxCell id="3wrw05tANonlnPxJcy26-155" value="Checkback Date" style="rounded=0;whiteSpace=wrap;html=1;fontFamily=Times New Roman;" vertex="1" parent="1">
          <mxGeometry x="1064" y="2721" width="120" height="60" as="geometry" />
        </mxCell>
        <mxCell id="3wrw05tANonlnPxJcy26-156" value="" style="edgeStyle=orthogonalEdgeStyle;rounded=0;orthogonalLoop=1;jettySize=auto;html=1;fontFamily=Times New Roman;fontSize=16;startFill=1;endArrow=classic;endFill=1;strokeColor=default;" edge="1" parent="1" source="3wrw05tANonlnPxJcy26-157" target="3wrw05tANonlnPxJcy26-154">
          <mxGeometry relative="1" as="geometry" />
        </mxCell>
        <mxCell id="3wrw05tANonlnPxJcy26-157" value="&lt;span&gt;Patient ID&lt;/span&gt;" style="rounded=0;whiteSpace=wrap;html=1;fontFamily=Times New Roman;fontStyle=5" vertex="1" parent="1">
          <mxGeometry x="944" y="2868" width="120" height="60" as="geometry" />
        </mxCell>
        <mxCell id="3wrw05tANonlnPxJcy26-158" value="Date Discharged" style="rounded=0;whiteSpace=wrap;html=1;fontFamily=Times New Roman;" vertex="1" parent="1">
          <mxGeometry x="1064" y="2868" width="120" height="60" as="geometry" />
        </mxCell>
        <mxCell id="3wrw05tANonlnPxJcy26-159" value="" style="edgeStyle=orthogonalEdgeStyle;rounded=0;orthogonalLoop=1;jettySize=auto;html=1;fontFamily=Times New Roman;fontSize=16;startFill=1;endArrow=classic;endFill=1;strokeColor=default;" edge="1" parent="1" source="3wrw05tANonlnPxJcy26-160" target="3wrw05tANonlnPxJcy26-157">
          <mxGeometry relative="1" as="geometry" />
        </mxCell>
        <mxCell id="3wrw05tANonlnPxJcy26-160" value="&lt;span&gt;&lt;b&gt;&lt;u&gt;Patient ID&lt;/u&gt;&lt;/b&gt;&lt;/span&gt;" style="rounded=0;whiteSpace=wrap;html=1;fontFamily=Times New Roman;" vertex="1" parent="1">
          <mxGeometry x="944" y="3025" width="120" height="60" as="geometry" />
        </mxCell>
        <mxCell id="3wrw05tANonlnPxJcy26-161" value="&lt;b&gt;&lt;u&gt;BED ID&lt;/u&gt;&lt;/b&gt;" style="rounded=0;whiteSpace=wrap;html=1;fontFamily=Times New Roman;" vertex="1" parent="1">
          <mxGeometry x="1064" y="3025" width="120" height="60" as="geometry" />
        </mxCell>
        <mxCell id="3wrw05tANonlnPxJcy26-162" value="Responsible Physician" style="text;html=1;align=center;verticalAlign=middle;resizable=0;points=[];autosize=1;strokeColor=none;fillColor=none;fontSize=16;fontFamily=Times New Roman;fontStyle=1" vertex="1" parent="1">
          <mxGeometry x="1010" y="2547" width="162" height="23" as="geometry" />
        </mxCell>
        <mxCell id="3wrw05tANonlnPxJcy26-163" value="Out Patient" style="text;html=1;align=center;verticalAlign=middle;resizable=0;points=[];autosize=1;strokeColor=none;fillColor=none;fontSize=16;fontFamily=Times New Roman;fontStyle=1" vertex="1" parent="1">
          <mxGeometry x="1019" y="2685" width="90" height="23" as="geometry" />
        </mxCell>
        <mxCell id="3wrw05tANonlnPxJcy26-164" value="In Patient" style="text;html=1;align=center;verticalAlign=middle;resizable=0;points=[];autosize=1;strokeColor=none;fillColor=none;fontSize=16;fontFamily=Times New Roman;fontStyle=1" vertex="1" parent="1">
          <mxGeometry x="1028" y="2839" width="78" height="23" as="geometry" />
        </mxCell>
        <mxCell id="3wrw05tANonlnPxJcy26-165" value="Bed" style="text;html=1;align=center;verticalAlign=middle;resizable=0;points=[];autosize=1;strokeColor=none;fillColor=none;fontSize=16;fontFamily=Times New Roman;fontStyle=1" vertex="1" parent="1">
          <mxGeometry x="1044" y="2987" width="37" height="23" as="geometry" />
        </mxCell>
        <mxCell id="3wrw05tANonlnPxJcy26-166" value="Vehicle ID" style="rounded=0;whiteSpace=wrap;html=1;fontFamily=Times New Roman;fontStyle=5" vertex="1" parent="1">
          <mxGeometry x="944" y="2435" width="120" height="60" as="geometry" />
        </mxCell>
        <mxCell id="3wrw05tANonlnPxJcy26-167" value="Price" style="rounded=0;whiteSpace=wrap;html=1;fontFamily=Times New Roman;" vertex="1" parent="1">
          <mxGeometry x="1064" y="2435" width="120" height="60" as="geometry" />
        </mxCell>
        <mxCell id="3wrw05tANonlnPxJcy26-168" value="Engine Displacement" style="rounded=0;whiteSpace=wrap;html=1;fontFamily=Times New Roman;" vertex="1" parent="1">
          <mxGeometry x="1184" y="2435" width="120" height="60" as="geometry" />
        </mxCell>
        <mxCell id="3wrw05tANonlnPxJcy26-169" value="&lt;u&gt;Vehicle Name&lt;/u&gt;" style="rounded=0;whiteSpace=wrap;html=1;fontFamily=Times New Roman;" vertex="1" parent="1">
          <mxGeometry x="1304" y="2435" width="120" height="60" as="geometry" />
        </mxCell>
      </root>
    </mxGraphModel>
  </diagram>
</mxfile>
